<svg xmlns="http://www.w3.org/2000/svg" viewBox="0 0 24 24" fill="none" stroke="#7a8c66" stroke-width="1.4" stroke-linecap="round" stroke-linejoin="round">
  <circle cx="12" cy="12" r="1.6" fill="#7a8c66" stroke="none" />
  <path d="M12 10.4c0-2.4-1.6-4-3.2-4.6 0 2.2 1 4 3.2 4.6Z" />
  <path d="M13.6 10.4c0-2.4 1.6-4 3.2-4.6 0 2.2-1 4-3.2 4.6Z" />
  <path d="M12 13.6c0 2.4-1.6 4-3.2 4.6 0-2.2 1-4 3.2-4.6Z" />
  <path d="M13.6 13.6c0 2.4 1.6 4 3.2 4.6 0-2.2-1-4-3.2-4.6Z" />
  <path d="M10.4 12c-2.4 0-4-1.6-4.6-3.2 2.2 0 4 1 4.6 3.2Z" />
  <path d="M13.6 12c2.4 0 4 1.6 4.6 3.2-2.2 0-4-1-4.6-3.2Z" />
</svg>
